<svg version="1.2" baseProfile="tiny" xmlns="http://www.w3.org/2000/svg" viewBox="0 0 876 812"><path fill="#EDEDED" d="M626.3 0H249.7v79.2c0 10.9 8.8 19.7 19.7 19.7h337.2c10.9 0 19.7-8.8 19.7-19.7V0z"/><g fill="none" stroke="#5F5F5F" stroke-miterlimit="10"><path d="M438.8 132.5v4"/><path stroke-dasharray="8.0831,8.0831" d="M438.8 144.6V771"/><path d="M438.8 775.1v4"/></g><g><g fill="#020203"><path d="M161.5 759.4v-.8c.8-.8 1.5-1.6 2.2-2.2s1.2-1.3 1.6-1.8c.4-.6.8-1.1 1-1.5.2-.5.3-.9.3-1.4 0-.6-.2-1.1-.5-1.5s-.9-.6-1.5-.6c-.5 0-.9.1-1.3.4s-.7.6-1.1.9l-.8-.8c.5-.5.9-.9 1.4-1.2.5-.3 1.1-.5 1.8-.5 1 0 1.8.3 2.4.9.6.6.9 1.4.9 2.3 0 .5-.1 1-.3 1.5-.2.5-.5 1-.9 1.6s-.9 1.1-1.4 1.7c-.5.6-1.1 1.2-1.8 1.9.3 0 .6 0 .9-.1h4v1.2h-6.9zM174.4 759.4v-3h-4.9v-.9l4.6-6.9h1.6v6.7h1.5v1.1h-1.5v3h-1.3zm-3.4-4.2h3.4v-3.1-1c0-.4 0-.8.1-1h-.1c-.1.3-.3.5-.4.8-.1.2-.3.5-.5.8l-2.5 3.5z"/></g><g fill="#020203"><path d="M161.5 718.6v-.8c.8-.8 1.5-1.6 2.2-2.2s1.2-1.3 1.6-1.8c.4-.6.8-1.1 1-1.5.2-.5.3-.9.3-1.4 0-.6-.2-1.1-.5-1.5s-.9-.6-1.5-.6c-.5 0-.9.1-1.3.4s-.7.6-1.1.9l-.8-.8c.5-.5.9-.9 1.4-1.2.5-.3 1.1-.5 1.8-.5 1 0 1.8.3 2.4.9.6.6.9 1.4.9 2.3 0 .5-.1 1-.3 1.5-.2.5-.5 1-.9 1.6s-.9 1.1-1.4 1.7c-.5.6-1.1 1.2-1.8 1.9.3 0 .6 0 .9-.1h4v1.2h-6.9zM169.9 718.6v-.8c.8-.8 1.5-1.6 2.2-2.2s1.2-1.3 1.6-1.8c.4-.6.8-1.1 1-1.5.2-.5.3-.9.3-1.4 0-.6-.2-1.1-.5-1.5s-.9-.6-1.5-.6c-.5 0-.9.1-1.3.4s-.7.6-1.1.9l-.8-.8c.5-.5.9-.9 1.4-1.2.5-.3 1.1-.5 1.8-.5 1 0 1.8.3 2.4.9.6.6.9 1.4.9 2.3 0 .5-.1 1-.3 1.5-.2.5-.5 1-.9 1.6s-.9 1.1-1.4 1.7c-.5.6-1.1 1.2-1.8 1.9.3 0 .6 0 .9-.1h4v1.2h-6.9z"/></g><g fill="#020203"><path d="M161.5 692.5v-.8c.8-.8 1.5-1.6 2.2-2.2s1.2-1.3 1.6-1.8c.4-.6.8-1.1 1-1.5.2-.5.3-.9.3-1.4 0-.6-.2-1.1-.5-1.5-.3-.4-.9-.6-1.5-.6-.5 0-.9.1-1.3.4-.4.3-.7.6-1.1.9l-.8-.8c.5-.5.9-.9 1.4-1.2.5-.3 1.1-.5 1.8-.5 1 0 1.8.3 2.4.9s.9 1.4.9 2.3c0 .5-.1 1-.3 1.5-.2.5-.5 1-.9 1.6s-.9 1.1-1.4 1.7c-.5.6-1.1 1.2-1.8 1.9.3 0 .6 0 .9-.1h4v1.2h-6.9zM170.6 692.5v-1.2h2.5v-8h-2v-.9c.5-.1.9-.2 1.3-.3.4-.1.7-.3 1-.5h1.1v9.7h2.2v1.2h-6.1z"/></g><g fill="#020203"><path d="M312.5 733.3v-.8c.8-.8 1.5-1.6 2.2-2.2s1.2-1.3 1.6-1.8c.4-.6.8-1.1 1-1.5.2-.5.3-.9.3-1.4 0-.6-.2-1.1-.5-1.5s-.9-.6-1.5-.6c-.5 0-.9.1-1.3.4s-.7.6-1.1.9l-.8-.8c.5-.5.9-.9 1.4-1.2.5-.3 1.1-.5 1.8-.5 1 0 1.8.3 2.4.9.6.6.9 1.4.9 2.3 0 .5-.1 1-.3 1.5-.2.5-.5 1-.9 1.6s-.9 1.1-1.4 1.7c-.5.6-1.1 1.2-1.8 1.9.3 0 .6 0 .9-.1h4v1.2h-6.9zM324.3 733.5c-.4 0-.8 0-1.2-.1s-.7-.2-1-.3c-.3-.1-.6-.3-.8-.5l-.6-.6.7-.9c.3.3.7.6 1.1.9.4.3 1 .4 1.6.4.7 0 1.2-.2 1.6-.5.4-.4.6-.8.6-1.5 0-.3-.1-.6-.2-.9-.1-.3-.3-.5-.6-.7-.3-.2-.6-.3-1.1-.4-.4-.1-1-.2-1.6-.2v-1.1c.6 0 1.1-.1 1.5-.2a3 3 0 0 0 1-.4c.2-.2.4-.4.5-.6s.2-.5.2-.8c0-.5-.2-1-.5-1.3-.3-.3-.8-.5-1.4-.5-.5 0-.9.1-1.2.3-.4.2-.7.5-1.1.8l-.7-.9c.4-.4.9-.7 1.4-1s1.1-.4 1.7-.4c.5 0 .9.1 1.3.2s.7.3 1 .5.5.5.7.9c.2.3.2.7.2 1.2 0 .7-.2 1.2-.5 1.6-.4.4-.8.7-1.4 1v.1l.9.3c.3.2.5.3.7.6s.4.5.5.8a2.77 2.77 0 0 1-.1 2.3c-.2.4-.4.7-.8 1-.3.3-.7.5-1.1.6s-.8.3-1.3.3z"/></g><g fill="#020203"><path d="M312.5 707.2v-.8c.8-.8 1.5-1.6 2.2-2.2s1.2-1.3 1.6-1.8c.4-.6.8-1.1 1-1.5.2-.5.3-.9.3-1.4 0-.6-.2-1.1-.5-1.5s-.9-.6-1.5-.6c-.5 0-.9.1-1.3.4s-.7.6-1.1.9l-.8-.8c.5-.5.9-.9 1.4-1.2.5-.3 1.1-.5 1.8-.5 1 0 1.8.3 2.4.9.6.6.9 1.4.9 2.3 0 .5-.1 1-.3 1.5-.2.5-.5 1-.9 1.6s-.9 1.1-1.4 1.7c-.5.6-1.1 1.2-1.8 1.9.3 0 .6 0 .9-.1h4v1.2h-6.9zM320.9 707.2v-.8c.8-.8 1.5-1.6 2.2-2.2s1.2-1.3 1.6-1.8c.4-.6.8-1.1 1-1.5.2-.5.3-.9.3-1.4 0-.6-.2-1.1-.5-1.5s-.9-.6-1.5-.6c-.5 0-.9.1-1.3.4s-.7.6-1.1.9l-.8-.8c.5-.5.9-.9 1.4-1.2.5-.3 1.1-.5 1.8-.5 1 0 1.8.3 2.4.9.6.6.9 1.4.9 2.3 0 .5-.1 1-.3 1.5-.2.5-.5 1-.9 1.6s-.9 1.1-1.4 1.7c-.5.6-1.1 1.2-1.8 1.9.3 0 .6 0 .9-.1h4v1.2h-6.9z"/></g><g fill="#020203"><path d="M312.5 681.1v-.8c.8-.8 1.5-1.6 2.2-2.2s1.2-1.3 1.6-1.8c.4-.6.8-1.1 1-1.5.2-.5.3-.9.3-1.4 0-.6-.2-1.1-.5-1.5-.3-.4-.9-.6-1.5-.6-.5 0-.9.1-1.3.4-.4.3-.7.6-1.1.9l-.8-.8c.5-.5.9-.9 1.4-1.2.5-.3 1.1-.5 1.8-.5 1 0 1.8.3 2.4.9s.9 1.4.9 2.3c0 .5-.1 1-.3 1.5-.2.5-.5 1-.9 1.6s-.9 1.1-1.4 1.7c-.5.6-1.1 1.2-1.8 1.9.3 0 .6 0 .9-.1h4v1.2h-6.9zM321.6 681.1V680h2.5v-8h-2v-.9c.5-.1.9-.2 1.3-.3.4-.1.7-.3 1-.5h1.1v9.7h2.2v1.2h-6.1z"/></g><g fill="#020203"><path d="M85 655v-.8c.8-.8 1.5-1.6 2.2-2.2s1.2-1.3 1.6-1.8c.4-.6.8-1.1 1-1.5.2-.5.3-.9.3-1.4 0-.6-.2-1.1-.5-1.5-.3-.4-.9-.6-1.5-.6-.5 0-.9.1-1.3.4-.4.3-.7.6-1.1.9l-.8-.8c.5-.5.9-.9 1.4-1.2.5-.3 1.1-.5 1.8-.5 1 0 1.8.3 2.4.9s.9 1.4.9 2.3c0 .5-.1 1-.3 1.5-.2.5-.5 1-.9 1.6s-.9 1.1-1.4 1.7c-.5.6-1.1 1.2-1.8 1.9.3 0 .6 0 .9-.1H92v1.2h-7zM97 655.2c-1.1 0-2-.5-2.6-1.5s-.9-2.4-.9-4.2c0-1.8.3-3.2.9-4.2s1.5-1.4 2.6-1.4 1.9.5 2.6 1.4c.6 1 .9 2.3.9 4.2 0 1.8-.3 3.2-.9 4.2-.7 1-1.5 1.5-2.6 1.5zm0-1.1c.3 0 .6-.1.9-.3.3-.2.5-.4.7-.8.2-.4.3-.8.4-1.4.1-.6.2-1.3.2-2s-.1-1.5-.2-2-.2-1-.4-1.4c-.2-.4-.4-.6-.7-.8-.3-.2-.5-.3-.9-.3s-.6.1-.9.3c-.3.2-.5.4-.7.8-.2.4-.3.8-.4 1.4-.1.6-.2 1.2-.2 2 0 1.6.2 2.7.6 3.5.4.6.9 1 1.6 1z"/></g><g fill="#020203"><path d="M85.6 628.9v-1.2h2.5v-8h-2v-.9c.5-.1.9-.2 1.3-.3.4-.1.7-.3 1-.5h1.1v9.7h2.2v1.2h-6.1zM96.2 629.1a3.34 3.34 0 0 1-2.6-1.1l.8-.9c.2.3.5.5.8.6.3.2.6.2 1 .2s.7-.1 1.1-.2c.3-.2.6-.4.9-.8s.5-.8.6-1.4.2-1.3.3-2.2c-.3.4-.7.8-1.2 1-.5.2-.9.4-1.4.4-.9 0-1.7-.3-2.2-.8-.6-.6-.8-1.4-.8-2.5 0-.5.1-1 .3-1.4s.4-.8.7-1.1.6-.5 1-.7.8-.3 1.2-.3c.5 0 1 .1 1.5.3.5.2.9.5 1.2 1 .3.4.6 1 .8 1.6.2.7.3 1.4.3 2.3 0 1.1-.1 2-.3 2.8a4.49 4.49 0 0 1-2.2 3c-.5.3-1.2.2-1.8.2zm.5-5.4c.4 0 .7-.1 1.1-.3.4-.2.8-.6 1.1-1.1-.1-1.1-.3-1.9-.7-2.4-.4-.5-1-.8-1.6-.8-.3 0-.5.1-.7.2-.2.1-.4.3-.6.5-.2.2-.3.5-.4.8s-.1.6-.1 1c0 .7.2 1.3.5 1.7s.8.4 1.4.4z"/></g><g fill="#020203"><path d="M85.6 602.9v-1.2h2.5v-8h-2v-.9c.5-.1.9-.2 1.3-.3.4-.1.7-.3 1-.5h1.1v9.7h2.2v1.2h-6.1zM97 603.1c-.5 0-1-.1-1.4-.2-.4-.1-.8-.4-1.1-.6-.3-.3-.6-.6-.7-.9-.2-.4-.3-.8-.3-1.2 0-.4.1-.7.2-1 .1-.3.3-.6.5-.8.2-.2.4-.5.6-.6.2-.2.5-.3.8-.5v-.1c-.4-.3-.7-.6-1.1-1-.3-.4-.5-.9-.5-1.5 0-.4.1-.8.2-1.1l.6-.9c.3-.2.6-.4 1-.6s.8-.2 1.2-.2c.5 0 .9.1 1.3.2s.7.3 1 .6c.3.3.5.6.6.9s.2.7.2 1.2c0 .3 0 .6-.1.8s-.2.5-.4.7-.3.4-.5.6l-.5.5v.1c.2.1.5.3.7.5l.6.6c.2.2.3.5.4.8s.2.6.2 1-.1.8-.3 1.1c-.2.4-.4.7-.7.9-.3.3-.7.5-1.1.6-.4 0-.9.1-1.4.1zm0-1.1c.6 0 1.1-.2 1.5-.5.4-.4.6-.8.6-1.4 0-.4-.1-.7-.2-.9s-.4-.5-.6-.7c-.3-.2-.6-.4-.9-.5-.4-.2-.7-.3-1.1-.5-.4.3-.8.6-1.1 1a2.01 2.01 0 0 0-.2 2.1c.1.2.3.5.5.7.2.2.5.3.7.4.2.3.5.3.8.3zm.8-5.1c.4-.3.6-.7.8-1 .2-.4.3-.7.3-1.1 0-.5-.2-1-.5-1.4-.3-.4-.8-.6-1.4-.6-.5 0-.9.2-1.3.5-.3.3-.5.7-.5 1.3 0 .3.1.6.2.8.1.2.3.4.6.6.2.2.5.3.8.5s.6.3 1 .4z"/></g><g fill="#020203"><path d="M85.6 576.8v-1.2h2.5v-8h-2v-.9c.5-.1.9-.2 1.3-.3.4-.1.7-.3 1-.5h1.1v9.7h2.2v1.2h-6.1zM95.8 576.8c0-1 .1-2 .3-2.8.1-.8.3-1.7.6-2.4.2-.8.6-1.5.9-2.2.4-.7.8-1.4 1.4-2.2h-5.4V566h7v.9c-.6.8-1.2 1.6-1.6 2.3-.4.7-.7 1.5-1 2.3-.2.8-.4 1.6-.5 2.5-.1.9-.2 1.8-.2 2.9h-1.5z"/></g><g fill="#020203"><path d="M85.6 550.7v-1.2h2.5v-8h-2v-.9c.5-.1.9-.2 1.3-.3.4-.1.7-.3 1-.5h1.1v9.7h2.2v1.2h-6.1zM97.3 550.9c-.5 0-1-.1-1.5-.3-.5-.2-.8-.5-1.2-1-.3-.4-.6-1-.8-1.6-.2-.7-.3-1.4-.3-2.3 0-1.1.1-2 .3-2.8a4.49 4.49 0 0 1 2.2-3 4.15 4.15 0 0 1 3.1 0c.4.2.8.5 1.1.8l-.8.9c-.2-.3-.5-.5-.8-.6-.3-.2-.6-.2-1-.2s-.7.1-1.1.2c-.3.2-.6.4-.9.8-.3.4-.5.8-.6 1.4s-.2 1.3-.3 2.2c.3-.4.7-.8 1.2-1 .5-.2.9-.4 1.3-.4.9 0 1.7.3 2.3.8.6.6.8 1.4.8 2.5 0 .5-.1 1-.3 1.4-.2.4-.4.8-.7 1.1-.3.3-.6.5-1 .7-.1.3-.6.4-1 .4zm0-1.1c.3 0 .5-.1.7-.2.2-.1.4-.3.6-.5s.3-.5.4-.7.1-.6.1-1c0-.7-.2-1.3-.5-1.7-.3-.4-.8-.6-1.5-.6-.4 0-.7.1-1.1.3-.4.2-.8.6-1.1 1.1.1 1.1.3 1.9.7 2.4s1 .9 1.7.9z"/></g><g fill="#020203"><path d="M85.6 524.6v-1.2h2.5v-8h-2v-.9c.5-.1.9-.2 1.3-.3.4-.1.7-.3 1-.5h1.1v9.7h2.2v1.2h-6.1zM96.7 524.8c-.4 0-.8 0-1.2-.1s-.7-.2-1-.3c-.3-.1-.5-.3-.8-.5s-.4-.4-.6-.6l.7-.9c.3.3.7.6 1.1.9.4.2 1 .4 1.6.4.3 0 .6-.1.9-.2s.5-.3.8-.5c.2-.2.4-.5.5-.8a2.8 2.8 0 0 0-.4-2.8c-.4-.4-1-.6-1.7-.6-.4 0-.7.1-1 .2-.3.1-.6.3-.9.5l-.7-.5.4-5.2h5.4v1.2h-4.2l-.3 3.2c.3-.1.5-.2.8-.3s.6-.1.9-.1c.5 0 .9.1 1.3.2s.8.3 1.1.6c.3.3.5.6.7 1.1a4.15 4.15 0 0 1 0 3.1c-.2.5-.5.8-.8 1.1-.3.3-.7.5-1.2.7-.4.1-.9.2-1.4.2z"/></g><g fill="#020203"><path d="M85.6 498.5v-1.2h2.5v-8h-2v-.9c.5-.1.9-.2 1.3-.3.4-.1.7-.3 1-.5h1.1v9.7h2.2v1.2h-6.1zM97.9 498.5v-3H93v-.9l4.6-6.9h1.6v6.7h1.5v1.1h-1.5v3h-1.3zm-3.4-4.1h3.4v-3.1-1c0-.4 0-.8.1-1h-.1c-.1.3-.3.5-.4.8-.1.2-.3.5-.5.8l-2.5 3.5z"/></g><g fill="#020203"><path d="M85.6 472.4v-1.2h2.5v-8h-2v-.9c.5-.1.9-.2 1.3-.3.4-.1.7-.3 1-.5h1.1v9.7h2.2v1.2h-6.1zM96.8 472.7c-.4 0-.8 0-1.2-.1s-.7-.2-1-.3c-.3-.1-.6-.3-.8-.5l-.6-.6.7-.9c.3.3.7.6 1.1.9.4.3 1 .4 1.6.4.7 0 1.2-.2 1.6-.5.4-.4.6-.8.6-1.5 0-.3-.1-.6-.2-.9-.1-.3-.3-.5-.6-.7-.3-.2-.6-.3-1.1-.4-.4-.1-1-.2-1.6-.2v-1.1c.6 0 1.1-.1 1.5-.2a3 3 0 0 0 1-.4c.2-.2.4-.4.5-.6s.2-.5.2-.8c0-.5-.2-1-.5-1.3-.3-.3-.8-.5-1.4-.5-.5 0-.9.1-1.2.3-.4.2-.7.5-1.1.8l-.7-.9c.4-.4.9-.7 1.4-1s1.1-.4 1.7-.4c.5 0 .9.1 1.3.2s.7.3 1 .5.5.5.7.9c.2.3.2.7.2 1.2 0 .7-.2 1.2-.5 1.6-.4.4-.8.7-1.4 1v.1l.9.3c.3.2.5.3.7.6s.4.5.5.8a2.77 2.77 0 0 1-.1 2.3c-.2.4-.4.7-.8 1-.3.3-.7.5-1.1.6s-.8.3-1.3.3z"/></g><g fill="#020203"><path d="M85.6 446.4v-1.2h2.5v-8h-2v-.9c.5-.1.9-.2 1.3-.3.4-.1.7-.3 1-.5h1.1v9.7h2.2v1.2h-6.1zM93.4 446.4v-.8c.8-.8 1.5-1.6 2.2-2.2s1.2-1.3 1.6-1.8c.4-.6.8-1.1 1-1.5.2-.5.3-.9.3-1.4 0-.6-.2-1.1-.5-1.5s-.9-.6-1.5-.6c-.5 0-.9.1-1.3.4s-.7.6-1.1.9l-.8-.8c.5-.5.9-.9 1.4-1.2.5-.3 1.1-.5 1.8-.5 1 0 1.8.3 2.4.9.6.6.9 1.4.9 2.3 0 .5-.1 1-.3 1.5-.2.5-.5 1-.9 1.6s-.9 1.1-1.4 1.7c-.5.6-1.1 1.2-1.8 1.9.3 0 .6 0 .9-.1h4v1.2h-6.9z"/></g><g fill="#020203"><path d="M85.6 420.3v-1.2h2.5v-8h-2v-.9c.5-.1.9-.2 1.3-.3.4-.1.7-.3 1-.5h1.1v9.7h2.2v1.2h-6.1zM94.1 420.3v-1.2h2.5v-8h-2v-.9c.5-.1.9-.2 1.3-.3.4-.1.7-.3 1-.5H98v9.7h2.2v1.2h-6.1z"/></g><g fill="#020203"><path d="M85.6 394.2V393h2.5v-8h-2v-.9c.5-.1.9-.2 1.3-.3s.7-.3 1-.5h1.1v9.7h2.2v1.2h-6.1zM97 394.4c-1.1 0-2-.5-2.6-1.5s-.9-2.4-.9-4.2c0-1.8.3-3.2.9-4.2.6-1 1.5-1.4 2.6-1.4s1.9.5 2.6 1.4c.6 1 .9 2.3.9 4.2 0 1.8-.3 3.2-.9 4.2-.7 1-1.5 1.5-2.6 1.5zm0-1.1c.3 0 .6-.1.9-.3.3-.2.5-.4.7-.8.2-.4.3-.8.4-1.4.1-.6.2-1.3.2-2s-.1-1.5-.2-2c-.1-.6-.2-1-.4-1.4s-.4-.6-.7-.8c-.3-.2-.5-.3-.9-.3s-.6.1-.9.3c-.3.2-.5.4-.7.8s-.3.8-.4 1.4c-.1.6-.2 1.2-.2 2 0 1.6.2 2.7.6 3.5.4.6.9 1 1.6 1z"/></g><path fill="#020203" d="M92 368.3a3.34 3.34 0 0 1-2.6-1.1l.8-.9c.2.3.5.5.8.6.3.2.6.2 1 .2s.7-.1 1.1-.2c.3-.2.6-.4.9-.8s.5-.8.6-1.4c.2-.6.2-1.3.3-2.2-.3.4-.7.8-1.2 1-.5.2-.9.4-1.4.4-.9 0-1.7-.3-2.2-.8-.6-.6-.8-1.4-.8-2.5 0-.5.1-1 .3-1.4.2-.4.4-.8.7-1.1s.6-.5 1-.7.8-.3 1.2-.3c.5 0 1 .1 1.5.3s.9.5 1.2 1c.3.4.6 1 .8 1.6.2.7.3 1.4.3 2.3 0 1.1-.1 2-.3 2.8s-.5 1.4-.9 1.9-.8.8-1.3 1.1-1.2.2-1.8.2zm.5-5.5c.4 0 .7-.1 1.1-.3.4-.2.8-.6 1.1-1.1-.1-1.1-.3-1.9-.7-2.4-.4-.5-1-.8-1.6-.8-.3 0-.5.1-.7.2-.2.1-.4.3-.6.5-.2.2-.3.5-.4.8-.1.3-.1.6-.1 1 0 .7.2 1.3.5 1.7.2.2.7.4 1.4.4zM92.8 342.2c-.5 0-1-.1-1.4-.2-.4-.1-.8-.4-1.1-.6-.3-.3-.6-.6-.7-.9-.2-.4-.3-.8-.3-1.2 0-.4.1-.7.2-1s.3-.6.5-.8.4-.5.6-.6.5-.3.8-.5v-.1c-.4-.3-.7-.6-1.1-1-.3-.4-.5-.9-.5-1.5 0-.4.1-.8.2-1.1l.6-.9c.2-.3.6-.4 1-.6.4-.1.8-.2 1.2-.2.5 0 .9.1 1.3.2s.7.3 1 .6c.3.3.5.6.6.9.1.4.2.7.2 1.2 0 .3 0 .6-.1.8-.1.3-.2.5-.4.7s-.3.4-.5.6l-.5.5v.1c.2.1.5.3.7.5l.6.6c.2.2.3.5.4.8s.2.6.2 1-.1.8-.3 1.1-.4.7-.7.9c-.3.3-.7.5-1.1.6-.4.1-.9.1-1.4.1zm0-1c.6 0 1.1-.2 1.5-.5.4-.4.6-.8.6-1.4a2 2 0 0 0-.2-.9c-.2-.2-.4-.5-.6-.7s-.6-.4-.9-.5c-.4-.2-.7-.3-1.1-.5-.4.3-.8.6-1.1 1a2.01 2.01 0 0 0-.2 2.1c.1.2.3.5.5.7.2.2.5.3.7.4.2.2.5.3.8.3zm.7-5.1c.4-.3.6-.7.8-1 .2-.4.3-.7.3-1.1 0-.5-.2-1-.5-1.4-.3-.4-.8-.6-1.4-.6-.5 0-.9.2-1.3.5-.3.3-.5.7-.5 1.3 0 .3.1.6.2.8.1.2.3.4.6.6s.5.3.8.5.7.3 1 .4zM91.5 315.9c0-1 .1-2 .3-2.8.1-.8.3-1.7.6-2.4.2-.8.6-1.5.9-2.2.4-.7.8-1.4 1.4-2.2h-5.4v-1.2h7v.9c-.6.8-1.2 1.6-1.6 2.3-.4.7-.7 1.5-1 2.3-.2.8-.4 1.6-.5 2.5-.1.9-.2 1.8-.2 2.9h-1.5zM93.1 290.1c-.5 0-1-.1-1.5-.3-.5-.2-.8-.5-1.2-1-.3-.4-.6-1-.8-1.6-.2-.7-.3-1.4-.3-2.3 0-1.1.1-2 .3-2.8a4.49 4.49 0 0 1 2.2-3 4.15 4.15 0 0 1 3.1 0c.4.2.8.5 1.1.8l-.8.9c-.2-.3-.5-.5-.8-.6-.3-.2-.6-.2-1-.2s-.7.1-1.1.2c-.3.2-.6.4-.9.8s-.5.8-.6 1.4c-.2.6-.2 1.3-.3 2.2.3-.4.7-.8 1.2-1 .5-.2.9-.4 1.3-.4.9 0 1.7.3 2.3.8.6.6.8 1.4.8 2.5 0 .5-.1 1-.3 1.4-.2.4-.4.8-.7 1.1-.3.3-.6.5-1 .7-.2.3-.6.4-1 .4zm0-1.1c.3 0 .5-.1.7-.2.2-.1.4-.3.6-.5.2-.2.3-.5.4-.7.1-.3.1-.6.1-1 0-.7-.2-1.3-.5-1.7-.3-.4-.8-.6-1.5-.6-.4 0-.7.1-1.1.3-.4.2-.8.6-1.1 1.1.1 1.1.3 1.9.7 2.4.4.6 1 .9 1.7.9zM92.5 264c-.4 0-.8 0-1.2-.1s-.7-.2-1-.3c-.3-.1-.5-.3-.8-.5l-.6-.6.7-.9c.3.3.7.6 1.1.9.4.2 1 .4 1.6.4.3 0 .6-.1.9-.2.3-.1.5-.3.8-.5s.4-.5.5-.8a2.8 2.8 0 0 0-.4-2.8c-.4-.4-1-.6-1.7-.6-.4 0-.7.1-1 .2-.3.1-.6.3-.9.5l-.7-.5.4-5.2h5.4v1.2h-4.2l-.3 3.2c.3-.1.5-.2.8-.3.3-.1.6-.1.9-.1.5 0 .9.1 1.3.2s.8.3 1.1.6.5.6.7 1.1a4.15 4.15 0 0 1 0 3.1c-.2.5-.5.8-.8 1.1-.3.3-.7.5-1.2.7-.5.1-.9.2-1.4.2zM93.7 237.7v-3h-4.9v-.9l4.6-6.9H95v6.7h1.5v1.1H95v3h-1.3zm-3.4-4.1h3.4v-3.1-1c0-.4 0-.8.1-1h-.1c-.1.3-.3.5-.4.8-.1.2-.3.5-.5.8l-2.5 3.5zM92.5 211.8c-.4 0-.8 0-1.2-.1s-.7-.2-1-.3c-.3-.1-.6-.3-.8-.5l-.6-.6.7-.9c.3.3.7.6 1.1.9.4.3 1 .4 1.6.4.7 0 1.2-.2 1.6-.5.4-.4.6-.8.6-1.5 0-.3-.1-.6-.2-.9-.1-.3-.3-.5-.6-.7-.3-.2-.6-.3-1.1-.4-.4-.1-1-.2-1.6-.2v-1.1c.6 0 1.1-.1 1.5-.2a3 3 0 0 0 1-.4c.2-.2.4-.4.5-.6.1-.2.2-.5.2-.8 0-.5-.2-1-.5-1.3-.3-.3-.8-.5-1.4-.5-.5 0-.9.1-1.2.3-.4.2-.7.5-1.1.8l-.7-.9c.4-.4.9-.7 1.4-1s1.1-.4 1.7-.4c.5 0 .9.1 1.3.2s.7.3 1 .5c.3.2.5.5.7.9.2.3.2.7.2 1.2 0 .7-.2 1.2-.5 1.6-.4.4-.8.7-1.4 1v.1l.9.3c.3.2.5.3.7.6s.4.5.5.8a2.77 2.77 0 0 1-.1 2.3c-.2.4-.4.7-.8 1-.3.3-.7.5-1.1.6s-.8.3-1.3.3zM89.2 185.5v-.8c.8-.8 1.5-1.6 2.2-2.2s1.2-1.3 1.6-1.8c.4-.6.8-1.1 1-1.5s.3-.9.3-1.4c0-.6-.2-1.1-.5-1.5-.3-.4-.9-.6-1.5-.6-.5 0-.9.1-1.3.4-.4.3-.7.6-1.1.9l-.8-.8c.5-.5.9-.9 1.4-1.2.5-.3 1.1-.5 1.8-.5 1 0 1.8.3 2.4.9.6.6.9 1.4.9 2.3 0 .5-.1 1-.3 1.5-.2.5-.5 1-.9 1.6s-.9 1.1-1.4 1.7c-.5.6-1.1 1.2-1.8 1.9.3 0 .6 0 .9-.1h4v1.2h-6.9zM89.9 159.5v-1.2h2.5v-8h-2v-.9c.5-.1.9-.2 1.3-.3s.7-.3 1-.5h1.1v9.7H96v1.2h-6.1z"/><g fill="#020203"><path d="M780.5 759.4v-.8c.8-.8 1.5-1.6 2.2-2.2s1.2-1.3 1.6-1.8c.4-.6.8-1.1 1-1.5.2-.5.3-.9.3-1.4 0-.6-.2-1.1-.5-1.5s-.9-.6-1.5-.6c-.5 0-.9.1-1.3.4s-.7.6-1.1.9l-.8-.8c.5-.5.9-.9 1.4-1.2.5-.3 1.1-.5 1.8-.5 1 0 1.8.3 2.4.9.6.6.9 1.4.9 2.3 0 .5-.1 1-.3 1.5-.2.5-.5 1-.9 1.6s-.9 1.1-1.4 1.7c-.5.6-1.1 1.2-1.8 1.9.3 0 .6 0 .9-.1h4v1.2h-6.9zM793.4 759.4v-3h-4.9v-.9l4.6-6.9h1.6v6.7h1.5v1.1h-1.5v3h-1.3zm-3.4-4.2h3.4v-3.1-1c0-.4 0-.8.1-1h-.1c-.1.3-.3.5-.4.8-.1.2-.3.5-.5.8l-2.5 3.5z"/></g><g fill="#020203"><path d="M780.5 733.3v-.8c.8-.8 1.5-1.6 2.2-2.2s1.2-1.3 1.6-1.8c.4-.6.8-1.1 1-1.5.2-.5.3-.9.3-1.4 0-.6-.2-1.1-.5-1.5s-.9-.6-1.5-.6c-.5 0-.9.1-1.3.4s-.7.6-1.1.9l-.8-.8c.5-.5.9-.9 1.4-1.2.5-.3 1.1-.5 1.8-.5 1 0 1.8.3 2.4.9.6.6.9 1.4.9 2.3 0 .5-.1 1-.3 1.5-.2.5-.5 1-.9 1.6s-.9 1.1-1.4 1.7c-.5.6-1.1 1.2-1.8 1.9.3 0 .6 0 .9-.1h4v1.2h-6.9zM792.3 733.5c-.4 0-.8 0-1.2-.1s-.7-.2-1-.3c-.3-.1-.6-.3-.8-.5l-.6-.6.7-.9c.3.3.7.6 1.1.9.4.3 1 .4 1.6.4.7 0 1.2-.2 1.6-.5.4-.4.6-.8.6-1.5 0-.3-.1-.6-.2-.9-.1-.3-.3-.5-.6-.7-.3-.2-.6-.3-1.1-.4-.4-.1-1-.2-1.6-.2v-1.1c.6 0 1.1-.1 1.5-.2a3 3 0 0 0 1-.4c.2-.2.4-.4.5-.6.1-.2.2-.5.2-.8 0-.5-.2-1-.5-1.3-.3-.3-.8-.5-1.4-.5-.5 0-.9.1-1.2.3s-.7.5-1.1.8l-.7-.9c.4-.4.9-.7 1.4-1 .5-.3 1.1-.4 1.7-.4.5 0 .9.1 1.3.2s.7.3 1 .5.5.5.7.9c.2.3.2.7.2 1.2 0 .7-.2 1.2-.5 1.6-.4.4-.8.7-1.4 1v.1l.9.3c.3.2.5.3.7.6s.4.5.5.8a2.77 2.77 0 0 1-.1 2.3c-.2.4-.4.7-.8 1-.3.3-.7.5-1.1.6s-.8.3-1.3.3z"/></g><g fill="#020203"><path d="M780.5 707.2v-.8c.8-.8 1.5-1.6 2.2-2.2s1.2-1.3 1.6-1.8c.4-.6.8-1.1 1-1.5.2-.5.3-.9.3-1.4 0-.6-.2-1.1-.5-1.5s-.9-.6-1.5-.6c-.5 0-.9.1-1.3.4s-.7.6-1.1.9l-.8-.8c.5-.5.9-.9 1.4-1.2.5-.3 1.1-.5 1.8-.5 1 0 1.8.3 2.4.9.6.6.9 1.4.9 2.3 0 .5-.1 1-.3 1.5-.2.5-.5 1-.9 1.6s-.9 1.1-1.4 1.7c-.5.6-1.1 1.2-1.8 1.9.3 0 .6 0 .9-.1h4v1.2h-6.9zM788.9 707.2v-.8c.8-.8 1.5-1.6 2.2-2.2s1.2-1.3 1.6-1.8c.4-.6.8-1.1 1-1.5.2-.5.3-.9.3-1.4 0-.6-.2-1.1-.5-1.5s-.9-.6-1.5-.6c-.5 0-.9.1-1.3.4-.4.3-.7.6-1.1.9l-.8-.8c.5-.5.9-.9 1.4-1.2.5-.3 1.1-.5 1.8-.5 1 0 1.8.3 2.4.9.6.6.9 1.4.9 2.3 0 .5-.1 1-.3 1.5s-.5 1-.9 1.6l-1.4 1.7c-.5.6-1.1 1.2-1.8 1.9.3 0 .6 0 .9-.1h4v1.2h-6.9z"/></g><g fill="#020203"><path d="M780.5 681.1v-.8c.8-.8 1.5-1.6 2.2-2.2s1.2-1.3 1.6-1.8c.4-.6.8-1.1 1-1.5.2-.5.3-.9.3-1.4 0-.6-.2-1.1-.5-1.5-.3-.4-.9-.6-1.5-.6-.5 0-.9.1-1.3.4-.4.3-.7.6-1.1.9l-.8-.8c.5-.5.9-.9 1.4-1.2.5-.3 1.1-.5 1.8-.5 1 0 1.8.3 2.4.9s.9 1.4.9 2.3c0 .5-.1 1-.3 1.5-.2.5-.5 1-.9 1.6s-.9 1.1-1.4 1.7c-.5.6-1.1 1.2-1.8 1.9.3 0 .6 0 .9-.1h4v1.2h-6.9zM789.6 681.1V680h2.5v-8h-2v-.9c.5-.1.9-.2 1.3-.3.4-.1.7-.3 1-.5h1.1v9.7h2.2v1.2h-6.1z"/></g><g fill="#020203"><path d="M780.5 655v-.8c.8-.8 1.5-1.6 2.2-2.2s1.2-1.3 1.6-1.8c.4-.6.8-1.1 1-1.5.2-.5.3-.9.3-1.4 0-.6-.2-1.1-.5-1.5-.3-.4-.9-.6-1.5-.6-.5 0-.9.1-1.3.4-.4.3-.7.6-1.1.9l-.8-.8c.5-.5.9-.9 1.4-1.2.5-.3 1.1-.5 1.8-.5 1 0 1.8.3 2.4.9s.9 1.4.9 2.3c0 .5-.1 1-.3 1.5-.2.5-.5 1-.9 1.6s-.9 1.1-1.4 1.7c-.5.6-1.1 1.2-1.8 1.9.3 0 .6 0 .9-.1h4v1.2h-6.9zM792.5 655.2c-1.1 0-2-.5-2.6-1.5-.6-1-.9-2.4-.9-4.2 0-1.8.3-3.2.9-4.2.6-1 1.5-1.4 2.6-1.4s1.9.5 2.5 1.4c.6 1 .9 2.3.9 4.2 0 1.8-.3 3.2-.9 4.2-.6 1-1.4 1.5-2.5 1.5zm0-1.1c.3 0 .6-.1.9-.3.3-.2.5-.4.7-.8.2-.4.3-.8.4-1.4.1-.6.2-1.3.2-2s-.1-1.5-.2-2-.2-1-.4-1.4c-.2-.4-.4-.6-.7-.8-.3-.2-.5-.3-.9-.3s-.6.1-.9.3c-.3.2-.5.4-.7.8-.2.4-.3.8-.4 1.4s-.2 1.2-.2 2c0 1.6.2 2.7.6 3.5s.9 1 1.6 1z"/></g><g fill="#020203"><path d="M781.1 628.9v-1.2h2.5v-8h-2v-.9c.5-.1.9-.2 1.3-.3.4-.1.7-.3 1-.5h1.1v9.7h2.2v1.2h-6.1zM791.7 629.1a3.34 3.34 0 0 1-2.6-1.1l.8-.9c.2.3.5.5.8.6.3.2.6.2 1 .2s.7-.1 1.1-.2c.3-.2.6-.4.9-.8.3-.4.5-.8.6-1.4.2-.6.2-1.3.3-2.2-.3.4-.7.8-1.2 1s-.9.4-1.4.4c-.9 0-1.7-.3-2.2-.8-.6-.6-.8-1.4-.8-2.5 0-.5.1-1 .3-1.4s.4-.8.7-1.1.6-.5 1-.7c.4-.2.8-.3 1.2-.3.5 0 1 .1 1.5.3.5.2.9.5 1.2 1 .3.4.6 1 .8 1.6.2.7.3 1.4.3 2.3 0 1.1-.1 2-.3 2.8a4.49 4.49 0 0 1-2.2 3c-.5.3-1.2.2-1.8.2zm.5-5.4c.4 0 .7-.1 1.1-.3s.8-.6 1.1-1.1c-.1-1.1-.3-1.9-.7-2.4s-1-.8-1.6-.8c-.3 0-.5.1-.7.2s-.4.3-.6.5c-.2.2-.3.5-.4.8s-.1.6-.1 1c0 .7.2 1.3.5 1.7s.8.4 1.4.4z"/></g><g fill="#020203"><path d="M781.1 602.9v-1.2h2.5v-8h-2v-.9c.5-.1.9-.2 1.3-.3.4-.1.7-.3 1-.5h1.1v9.7h2.2v1.2h-6.1zM792.5 603.1c-.5 0-1-.1-1.4-.2s-.8-.4-1.1-.6c-.3-.3-.6-.6-.7-.9-.2-.4-.3-.8-.3-1.2 0-.4.1-.7.2-1 .1-.3.3-.6.5-.8.2-.2.4-.5.6-.6.2-.2.5-.3.8-.5v-.1c-.4-.3-.7-.6-1.1-1-.3-.4-.5-.9-.5-1.5 0-.4.1-.8.2-1.1l.6-.9c.3-.2.6-.4 1-.6.4-.1.8-.2 1.2-.2.5 0 .9.1 1.3.2s.7.3 1 .6c.3.3.5.6.6.9.1.4.2.7.2 1.2 0 .3 0 .6-.1.8s-.2.5-.4.7c-.1.2-.3.4-.5.6l-.5.5v.1c.2.1.5.3.7.5l.6.6c.2.2.3.5.4.8s.2.6.2 1-.1.8-.3 1.1c-.2.4-.4.7-.7.9-.3.3-.7.5-1.1.6s-.9.1-1.4.1zm0-1.1c.6 0 1.1-.2 1.5-.5.4-.4.6-.8.6-1.4a2 2 0 0 0-.2-.9c-.2-.2-.4-.5-.6-.7-.3-.2-.6-.4-.9-.5-.4-.2-.7-.3-1.1-.5-.4.3-.8.6-1.1 1a2.01 2.01 0 0 0-.2 2.1c.1.2.3.5.5.7.2.2.5.3.7.4.2.3.5.3.8.3zm.8-5.1c.4-.3.6-.7.8-1 .2-.4.3-.7.3-1.1 0-.5-.2-1-.5-1.4-.3-.4-.8-.6-1.4-.6-.5 0-.9.2-1.3.5-.3.3-.5.7-.5 1.3 0 .3.1.6.2.8.1.2.3.4.6.6.2.2.5.3.8.5.3.2.6.3 1 .4z"/></g><g fill="#020203"><path d="M781.1 576.8v-1.2h2.5v-8h-2v-.9c.5-.1.9-.2 1.3-.3.4-.1.7-.3 1-.5h1.1v9.7h2.2v1.2h-6.1zM791.3 576.8c0-1 .1-2 .3-2.8.1-.8.3-1.7.6-2.4.2-.8.6-1.5.9-2.2.4-.7.8-1.4 1.4-2.2H789V566h7v.9c-.6.8-1.2 1.6-1.6 2.3-.4.7-.7 1.5-1 2.3-.2.8-.4 1.6-.5 2.5-.1.9-.2 1.8-.2 2.9h-1.4z"/></g><g fill="#020203"><path d="M781.1 550.7v-1.2h2.5v-8h-2v-.9c.5-.1.9-.2 1.3-.3.4-.1.7-.3 1-.5h1.1v9.7h2.2v1.2h-6.1zM792.8 550.9c-.5 0-1-.1-1.5-.3-.5-.2-.8-.5-1.2-1-.3-.4-.6-1-.8-1.6-.2-.7-.3-1.4-.3-2.3 0-1.1.1-2 .3-2.8a4.49 4.49 0 0 1 2.2-3 4.15 4.15 0 0 1 3.1 0c.4.2.8.5 1.1.8l-.8.9c-.2-.3-.5-.5-.8-.6-.3-.2-.6-.2-1-.2s-.7.1-1.1.2c-.3.2-.6.4-.9.8-.3.4-.5.8-.6 1.4s-.2 1.3-.3 2.2c.3-.4.7-.8 1.2-1s.9-.4 1.3-.4c.9 0 1.7.3 2.3.8.6.6.8 1.4.8 2.5 0 .5-.1 1-.3 1.4-.2.4-.4.8-.7 1.1-.3.3-.6.5-1 .7-.1.3-.6.4-1 .4zm0-1.1c.3 0 .5-.1.7-.2s.4-.3.6-.5.3-.5.4-.7.1-.6.1-1c0-.7-.2-1.3-.5-1.7-.3-.4-.8-.6-1.5-.6-.4 0-.7.1-1.1.3-.4.2-.8.6-1.1 1.1.1 1.1.3 1.9.7 2.4s1 .9 1.7.9z"/></g><g fill="#020203"><path d="M781.1 524.6v-1.2h2.5v-8h-2v-.9c.5-.1.9-.2 1.3-.3.4-.1.7-.3 1-.5h1.1v9.7h2.2v1.2h-6.1zM792.2 524.8c-.4 0-.8 0-1.2-.1s-.7-.2-1-.3c-.3-.1-.5-.3-.8-.5s-.4-.4-.6-.6l.7-.9c.3.3.7.6 1.1.9.4.2 1 .4 1.6.4.3 0 .6-.1.9-.2s.5-.3.8-.5c.2-.2.4-.5.5-.8a2.8 2.8 0 0 0-.4-2.8c-.4-.4-1-.6-1.7-.6-.4 0-.7.1-1 .2s-.6.3-.9.5l-.7-.5.4-5.2h5.4v1.2h-4.2l-.3 3.2c.3-.1.5-.2.8-.3.3-.1.6-.1.9-.1.5 0 .9.1 1.3.2s.8.3 1.1.6c.3.3.5.6.7 1.1a4.15 4.15 0 0 1 0 3.1c-.2.5-.5.8-.8 1.1s-.7.5-1.2.7c-.4.1-.9.2-1.4.2z"/></g><g fill="#020203"><path d="M781.1 498.5v-1.2h2.5v-8h-2v-.9c.5-.1.9-.2 1.3-.3.4-.1.7-.3 1-.5h1.1v9.7h2.2v1.2h-6.1zM793.4 498.5v-3h-4.9v-.9l4.6-6.9h1.6v6.7h1.5v1.1h-1.5v3h-1.3zm-3.4-4.1h3.4v-3.1-1c0-.4 0-.8.1-1h-.1c-.1.3-.3.5-.4.8-.1.2-.3.5-.5.8l-2.5 3.5z"/></g><g fill="#020203"><path d="M781.1 472.4v-1.2h2.5v-8h-2v-.9c.5-.1.9-.2 1.3-.3.4-.1.7-.3 1-.5h1.1v9.7h2.2v1.2h-6.1zM792.3 472.7c-.4 0-.8 0-1.2-.1s-.7-.2-1-.3c-.3-.1-.6-.3-.8-.5l-.6-.6.7-.9c.3.3.7.6 1.1.9.4.3 1 .4 1.6.4.7 0 1.2-.2 1.6-.5.4-.4.6-.8.6-1.5 0-.3-.1-.6-.2-.9-.1-.3-.3-.5-.6-.7-.3-.2-.6-.3-1.1-.4-.4-.1-1-.2-1.6-.2v-1.1c.6 0 1.1-.1 1.5-.2a3 3 0 0 0 1-.4c.2-.2.4-.4.5-.6.1-.2.2-.5.2-.8 0-.5-.2-1-.5-1.3-.3-.3-.8-.5-1.4-.5-.5 0-.9.1-1.2.3s-.7.5-1.1.8l-.7-.9c.4-.4.9-.7 1.4-1 .5-.3 1.1-.4 1.7-.4.5 0 .9.1 1.3.2s.7.3 1 .5.5.5.7.9c.2.3.2.7.2 1.2 0 .7-.2 1.2-.5 1.6-.4.4-.8.7-1.4 1v.1l.9.3c.3.2.5.3.7.6s.4.5.5.8a2.77 2.77 0 0 1-.1 2.3c-.2.4-.4.7-.8 1-.3.3-.7.5-1.1.6s-.8.3-1.3.3z"/></g><g fill="#020203"><path d="M781.1 446.4v-1.2h2.5v-8h-2v-.9c.5-.1.9-.2 1.3-.3.4-.1.7-.3 1-.5h1.1v9.7h2.2v1.2h-6.1zM788.9 446.4v-.8c.8-.8 1.5-1.6 2.2-2.2s1.2-1.3 1.6-1.8c.4-.6.8-1.1 1-1.5.2-.5.3-.9.3-1.4 0-.6-.2-1.1-.5-1.5s-.9-.6-1.5-.6c-.5 0-.9.1-1.3.4-.4.3-.7.6-1.1.9l-.8-.8c.5-.5.9-.9 1.4-1.2.5-.3 1.1-.5 1.8-.5 1 0 1.8.3 2.4.9.6.6.9 1.4.9 2.3 0 .5-.1 1-.3 1.5s-.5 1-.9 1.6l-1.4 1.7c-.5.6-1.1 1.2-1.8 1.9.3 0 .6 0 .9-.1h4v1.2h-6.9z"/></g><g fill="#020203"><path d="M781.1 420.3v-1.2h2.5v-8h-2v-.9c.5-.1.9-.2 1.3-.3.4-.1.7-.3 1-.5h1.1v9.7h2.2v1.2h-6.1zM789.6 420.3v-1.2h2.5v-8h-2v-.9c.5-.1.9-.2 1.3-.3.4-.1.7-.3 1-.5h1.1v9.7h2.2v1.2h-6.1z"/></g><g fill="#020203"><path d="M781.1 394.2V393h2.5v-8h-2v-.9c.5-.1.9-.2 1.3-.3s.7-.3 1-.5h1.1v9.7h2.2v1.2h-6.1zM792.5 394.4c-1.1 0-2-.5-2.6-1.5-.6-1-.9-2.4-.9-4.2 0-1.8.3-3.2.9-4.2.6-1 1.5-1.4 2.6-1.4s1.9.5 2.5 1.4c.6 1 .9 2.3.9 4.2 0 1.8-.3 3.2-.9 4.2-.6 1-1.4 1.5-2.5 1.5zm0-1.1c.3 0 .6-.1.9-.3.3-.2.5-.4.7-.8.2-.4.3-.8.4-1.4.1-.6.2-1.3.2-2s-.1-1.5-.2-2c-.1-.6-.2-1-.4-1.4s-.4-.6-.7-.8c-.3-.2-.5-.3-.9-.3s-.6.1-.9.3c-.3.2-.5.4-.7.8-.2.4-.3.8-.4 1.4-.1.6-.2 1.2-.2 2 0 1.6.2 2.7.6 3.5s.9 1 1.6 1z"/></g><path fill="#020203" d="M787.5 368.3a3.34 3.34 0 0 1-2.6-1.1l.8-.9c.2.3.5.5.8.6.3.2.6.2 1 .2s.7-.1 1.1-.2c.3-.2.6-.4.9-.8.3-.4.5-.8.6-1.4.2-.6.2-1.3.3-2.2-.3.4-.7.8-1.2 1-.5.2-.9.4-1.4.4-.9 0-1.7-.3-2.2-.8-.6-.6-.8-1.4-.8-2.5 0-.5.1-1 .3-1.4.2-.4.4-.8.7-1.1s.6-.5 1-.7c.4-.2.8-.3 1.2-.3.5 0 1 .1 1.5.3s.9.5 1.2 1c.3.4.6 1 .8 1.6.2.7.3 1.4.3 2.3 0 1.1-.1 2-.3 2.8s-.5 1.4-.9 1.9-.8.8-1.3 1.1-1.2.2-1.8.2zm.5-5.5c.4 0 .7-.1 1.1-.3s.8-.6 1.1-1.1c-.1-1.1-.3-1.9-.7-2.4s-1-.8-1.6-.8c-.3 0-.5.1-.7.2s-.4.3-.6.5c-.2.2-.3.5-.4.8-.1.3-.1.6-.1 1 0 .7.2 1.3.5 1.7.2.2.7.4 1.4.4zM788.3 342.2c-.5 0-1-.1-1.4-.2-.4-.1-.8-.4-1.1-.6-.3-.3-.6-.6-.7-.9-.2-.4-.3-.8-.3-1.2 0-.4.1-.7.2-1s.3-.6.5-.8.4-.5.6-.6c.2-.2.5-.3.8-.5v-.1c-.4-.3-.7-.6-1.1-1-.3-.4-.5-.9-.5-1.5 0-.4.1-.8.2-1.1l.6-.9c.2-.3.6-.4 1-.6.4-.1.8-.2 1.2-.2.5 0 .9.1 1.3.2s.7.3 1 .6c.3.3.5.6.6.9.1.4.2.7.2 1.2 0 .3 0 .6-.1.8-.1.3-.2.5-.4.7-.1.2-.3.4-.5.6l-.5.5v.1c.2.1.5.3.7.5l.6.6c.2.2.3.5.4.8s.2.6.2 1-.1.8-.3 1.1-.4.7-.7.9c-.3.3-.7.5-1.1.6-.4.1-.9.1-1.4.1zm0-1c.6 0 1.1-.2 1.5-.5.4-.4.6-.8.6-1.4a2 2 0 0 0-.2-.9c-.2-.2-.4-.5-.6-.7s-.6-.4-.9-.5c-.4-.2-.7-.3-1.1-.5-.4.3-.8.6-1.1 1a2.01 2.01 0 0 0-.2 2.1c.1.2.3.5.5.7.2.2.5.3.7.4.2.2.5.3.8.3zm.7-5.1c.4-.3.6-.7.8-1 .2-.4.3-.7.3-1.1 0-.5-.2-1-.5-1.4-.3-.4-.8-.6-1.4-.6-.5 0-.9.2-1.3.5-.3.3-.5.7-.5 1.3 0 .3.1.6.2.8.1.2.3.4.6.6s.5.3.8.5c.4.2.7.3 1 .4zM787 315.9c0-1 .1-2 .3-2.8.1-.8.3-1.7.6-2.4.2-.8.6-1.5.9-2.2.4-.7.8-1.4 1.4-2.2h-5.4v-1.2h7v.9c-.6.8-1.2 1.6-1.6 2.3-.4.7-.7 1.5-1 2.3-.2.8-.4 1.6-.5 2.5-.1.9-.2 1.8-.2 2.9H787zM788.6 290.1c-.5 0-1-.1-1.5-.3-.5-.2-.8-.5-1.2-1-.3-.4-.6-1-.8-1.6-.2-.7-.3-1.4-.3-2.3 0-1.1.1-2 .3-2.8s.5-1.4.9-1.9.8-.8 1.3-1.1a4.15 4.15 0 0 1 3.1 0c.4.2.8.5 1.1.8l-.8.9c-.2-.3-.5-.5-.8-.6-.3-.2-.6-.2-1-.2s-.7.1-1.1.2c-.3.2-.6.4-.9.8s-.5.8-.6 1.4c-.2.6-.2 1.3-.3 2.2.3-.4.7-.8 1.2-1 .5-.2.9-.4 1.3-.4.9 0 1.7.3 2.3.8s.8 1.4.8 2.5c0 .5-.1 1-.3 1.4-.2.4-.4.8-.7 1.1-.3.3-.6.5-1 .7-.2.3-.6.4-1 .4zm0-1.1c.3 0 .5-.1.7-.2s.4-.3.6-.5c.2-.2.3-.5.4-.7.1-.3.1-.6.1-1 0-.7-.2-1.3-.5-1.7-.3-.4-.8-.6-1.5-.6-.4 0-.7.1-1.1.3-.4.2-.8.6-1.1 1.1.1 1.1.3 1.9.7 2.4.4.6 1 .9 1.7.9zM788 264c-.4 0-.8 0-1.2-.1s-.7-.2-1-.3c-.3-.1-.5-.3-.8-.5l-.6-.6.7-.9c.3.3.7.6 1.1.9.4.2 1 .4 1.6.4.3 0 .6-.1.9-.2.3-.1.5-.3.8-.5s.4-.5.5-.8.2-.6.2-1c0-.7-.2-1.3-.6-1.8-.4-.4-1-.6-1.7-.6-.4 0-.7.1-1 .2s-.6.3-.9.5l-.7-.5.4-5.2h5.4v1.2h-4.2l-.3 3.2c.3-.1.5-.2.8-.3.3-.1.6-.1.9-.1.5 0 .9.1 1.3.2s.8.3 1.1.6.5.6.7 1.1a4.15 4.15 0 0 1 0 3.1c-.2.5-.5.8-.8 1.1s-.7.5-1.2.7c-.5.1-.9.2-1.4.2zM789.2 237.7v-3h-4.9v-.9l4.6-6.9h1.6v6.7h1.5v1.1h-1.5v3h-1.3zm-3.4-4.1h3.4v-3.1-1c0-.4 0-.8.1-1h-.1c-.1.3-.3.5-.4.8-.1.2-.3.5-.5.8l-2.5 3.5zM788 211.8c-.4 0-.8 0-1.2-.1s-.7-.2-1-.3c-.3-.1-.6-.3-.8-.5l-.6-.6.7-.9c.3.3.7.6 1.1.9.4.3 1 .4 1.6.4.7 0 1.2-.2 1.6-.5.4-.4.6-.8.6-1.5 0-.3-.1-.6-.2-.9-.1-.3-.3-.5-.6-.7-.3-.2-.6-.3-1.1-.4-.4-.1-1-.2-1.6-.2v-1.1c.6 0 1.1-.1 1.5-.2a3 3 0 0 0 1-.4c.2-.2.4-.4.5-.6.1-.2.2-.5.2-.8 0-.5-.2-1-.5-1.3-.3-.3-.8-.5-1.4-.5-.5 0-.9.1-1.2.3s-.7.5-1.1.8l-.7-.9c.4-.4.9-.7 1.4-1 .5-.3 1.1-.4 1.7-.4.5 0 .9.1 1.3.2s.7.3 1 .5c.3.2.5.5.7.9.2.3.2.7.2 1.2 0 .7-.2 1.2-.5 1.6-.4.4-.8.7-1.4 1v.1l.9.3c.3.2.5.3.7.6s.4.5.5.8a2.77 2.77 0 0 1-.1 2.3c-.2.4-.4.7-.8 1-.3.3-.7.5-1.1.6s-.8.3-1.3.3zM784.7 185.5v-.8c.8-.8 1.5-1.6 2.2-2.2s1.2-1.3 1.6-1.8c.4-.6.8-1.1 1-1.5s.3-.9.3-1.4c0-.6-.2-1.1-.5-1.5-.3-.4-.9-.6-1.5-.6-.5 0-.9.1-1.3.4-.4.3-.7.6-1.1.9l-.8-.8c.5-.5.9-.9 1.4-1.2.5-.3 1.1-.5 1.8-.5 1 0 1.8.3 2.4.9.6.6.9 1.4.9 2.3 0 .5-.1 1-.3 1.5s-.5 1-.9 1.6l-1.4 1.7c-.5.6-1.1 1.2-1.8 1.9.3 0 .6 0 .9-.1h4v1.2h-6.9zM785.4 159.5v-1.2h2.5v-8h-2v-.9c.5-.1.9-.2 1.3-.3.4-.1.7-.3 1-.5h1.1v9.7h2.2v1.2h-6.1z"/><g fill="#020203"><path d="M154.2 132.6v-11.2h3.2c.6 0 1.2.1 1.7.2s1 .3 1.3.6c.4.3.6.6.9 1 .2.4.3.9.3 1.5a3.34 3.34 0 0 1-1.1 2.6c-.3.3-.8.5-1.3.6-.5.1-1.1.2-1.7.2h-1.8v4.4h-1.5zm1.4-5.6h1.7c1 0 1.7-.2 2.2-.6s.7-.9.7-1.7c0-.8-.2-1.4-.7-1.7-.5-.3-1.2-.5-2.2-.5h-1.6v4.5zM164.9 132.8c-.7 0-1.3-.2-1.7-.6-.5-.4-.7-1-.7-1.7 0-.9.4-1.6 1.2-2.1.8-.5 2.1-.8 3.9-1 0-.3 0-.5-.1-.8-.1-.2-.1-.5-.3-.7-.1-.2-.3-.3-.5-.5-.2-.1-.5-.2-.8-.2-.5 0-.9.1-1.3.3-.4.2-.8.4-1.1.6l-.5-1c.4-.2.9-.5 1.4-.7.6-.2 1.2-.3 1.8-.3 1 0 1.7.3 2.2.9.5.6.7 1.4.7 2.5v5.1h-1.2l-.1-1h-.1c-.4.3-.8.6-1.3.8-.5.2-1 .4-1.5.4zm.4-1.2c.4 0 .8-.1 1.1-.3.4-.2.7-.5 1.1-.8v-2.3c-.7.1-1.3.2-1.7.3-.5.1-.9.3-1.1.4-.3.2-.5.4-.6.6-.1.2-.2.5-.2.7 0 .5.1.8.4 1s.6.4 1 .4zM171.5 132.6v-8.3h1.2l.1 1.5h.1a4 4 0 0 1 1-1.2c.4-.3.8-.5 1.3-.5.3 0 .6.1.9.2l-.3 1.2c-.1 0-.3-.1-.4-.1h-.4c-.4 0-.7.1-1.1.4-.4.3-.7.8-1 1.5v5.3h-1.4zM177.4 132.6v-12.1h1.4v8.2h.1l3.5-4.4h1.5l-2.8 3.3 3.1 4.9h-1.5l-2.4-4-1.5 1.8v2.2h-1.4zM188.9 132.8a3.8 3.8 0 0 1-2.9-1.2c-.4-.4-.6-.8-.8-1.4s-.3-1.1-.3-1.8a4.84 4.84 0 0 1 1.1-3.2c.3-.4.7-.7 1.2-.9.4-.2.9-.3 1.4-.3.5 0 1 .1 1.4.3.4.2.8.4 1 .8.3.3.5.7.6 1.2.1.5.2 1 .2 1.6v.8h-5.6c.1.9.3 1.6.8 2.1s1.1.8 1.9.8c.4 0 .8-.1 1.1-.2.3-.1.7-.3 1-.5l.5.9-1.2.6c-.3.3-.9.4-1.4.4zm-2.6-5h4.4c0-.8-.2-1.5-.5-1.9-.4-.4-.9-.7-1.5-.7-.3 0-.6.1-.8.2-.3.1-.5.3-.7.5s-.4.5-.5.8-.4.7-.4 1.1zM196.4 132.8c-.4 0-.8-.1-1.1-.2s-.5-.3-.7-.6-.3-.5-.4-.9c-.1-.3-.1-.7-.1-1.1v-4.6h-1.2v-1.1l1.3-.1.2-2.3h1.2v2.3h2.2v1.1h-2.2v4.6c0 .5.1.9.3 1.2.2.3.5.4 1 .4.1 0 .3 0 .5-.1s.3-.1.5-.2l.3 1.1c-.2.1-.5.1-.7.2-.6.2-.8.3-1.1.3zM201.8 132.8c-.4 0-.8-.1-1.1-.2s-.5-.3-.7-.6-.3-.5-.4-.9c-.1-.3-.1-.7-.1-1.1v-4.6h-1.2v-1.1l1.3-.1.2-2.3h1.2v2.3h2.2v1.1H201v4.6c0 .5.1.9.3 1.2.2.3.5.4 1 .4.1 0 .3 0 .5-.1s.3-.1.5-.2l.3 1.1c-.2.1-.5.1-.7.2-.6.2-.8.3-1.1.3zM208.5 132.6v-11.2h1.4v9.9h4.9v1.2h-6.3zM217.3 122.6a.9.9 0 0 1-.7-.3c-.2-.2-.3-.4-.3-.6 0-.3.1-.5.3-.7.2-.2.4-.2.7-.2s.5.1.7.2c.2.2.3.4.3.7 0 .3-.1.5-.3.6-.2.2-.4.3-.7.3zm-.7 10v-8.3h1.4v8.3h-1.4zM220.8 132.6v-8.3h1.2l.1 1.2h.1c.4-.4.8-.7 1.2-1 .4-.3.9-.4 1.5-.4.9 0 1.5.3 1.9.8s.6 1.3.6 2.4v5.2H226v-5c0-.8-.1-1.3-.4-1.7-.2-.3-.6-.5-1.2-.5-.4 0-.8.1-1.1.3-.3.2-.7.5-1.1 1v6h-1.4zM230.1 132.6v-12.1h1.4v8.2h.1l3.5-4.4h1.5l-2.8 3.3 3.1 4.9h-1.5l-2.4-4-1.5 1.8v2.2h-1.4zM240.7 132.8c-.6 0-1.2-.1-1.7-.3-.5-.2-1-.5-1.4-.8l.7-.9c.4.3.7.5 1.1.7.4.2.8.3 1.3.3s1-.1 1.2-.4c.3-.2.4-.6.4-.9 0-.2-.1-.4-.2-.6s-.3-.3-.4-.4l-.6-.3c-.2-.1-.5-.2-.7-.3l-.9-.3c-.3-.1-.6-.3-.8-.5s-.4-.4-.6-.7a2 2 0 0 1-.2-.9c0-.3.1-.6.2-.9.1-.3.3-.5.6-.7.2-.2.5-.4.9-.5.4-.1.7-.2 1.2-.2s1 .1 1.4.3c.4.2.8.4 1.1.7l-.7.9c-.3-.2-.6-.4-.9-.5-.3-.1-.6-.2-1-.2-.5 0-.9.1-1.1.4s-.4.5-.4.8c0 .2.1.4.2.5.1.1.2.3.4.4l.6.3c.2.1.5.2.7.3.3.1.6.2.9.4s.6.3.8.5c.2.2.4.4.6.7.2.3.2.6.2 1 0 .3-.1.7-.2 1-.1.3-.3.6-.6.8-.3.2-.6.4-1 .5-.2-.3-.7-.2-1.1-.2z"/></g><g fill="#020203"><path d="M626 132.6v-11.2h3.2c.6 0 1.2.1 1.7.2s1 .3 1.3.6c.4.3.6.6.9 1 .2.4.3.9.3 1.5a3.34 3.34 0 0 1-1.1 2.6c-.3.3-.8.5-1.3.6s-1.1.2-1.7.2h-1.8v4.4H626zm1.4-5.6h1.7c1 0 1.7-.2 2.2-.6s.7-.9.7-1.7c0-.8-.2-1.4-.7-1.7-.5-.3-1.2-.5-2.2-.5h-1.6v4.5zM636.6 132.8c-.7 0-1.3-.2-1.7-.6-.5-.4-.7-1-.7-1.7 0-.9.4-1.6 1.2-2.1.8-.5 2.1-.8 3.9-1 0-.3 0-.5-.1-.8-.1-.2-.1-.5-.3-.7-.1-.2-.3-.3-.5-.5-.2-.1-.5-.2-.8-.2-.5 0-.9.1-1.3.3-.4.2-.8.4-1.1.6l-.5-1c.4-.2.9-.5 1.4-.7.6-.2 1.2-.3 1.8-.3 1 0 1.7.3 2.2.9s.7 1.4.7 2.5v5.1h-1.2l-.1-1h-.1c-.4.3-.8.6-1.3.8-.5.2-1 .4-1.5.4zm.4-1.2c.4 0 .8-.1 1.1-.3s.7-.5 1.1-.8v-2.3c-.7.1-1.3.2-1.7.3-.5.1-.9.3-1.1.4-.3.2-.5.4-.6.6-.1.2-.2.5-.2.7 0 .5.1.8.4 1s.6.4 1 .4zM643.3 132.6v-8.3h1.2l.1 1.5h.1a4 4 0 0 1 1-1.2c.4-.3.8-.5 1.3-.5.3 0 .6.1.9.2l-.3 1.2c-.1 0-.3-.1-.4-.1h-.4c-.4 0-.7.1-1.1.4-.4.3-.7.8-1 1.5v5.3h-1.4zM649.2 132.6v-12.1h1.4v8.2h.1l3.5-4.4h1.5l-2.8 3.3 3.1 4.9h-1.5l-2.4-4-1.5 1.8v2.2h-1.4zM660.6 132.8a3.8 3.8 0 0 1-2.9-1.2c-.4-.4-.6-.8-.8-1.4-.2-.5-.3-1.1-.3-1.8a4.84 4.84 0 0 1 1.1-3.2c.3-.4.7-.7 1.2-.9.4-.2.9-.3 1.4-.3.5 0 1 .1 1.4.3s.8.4 1 .8c.3.3.5.7.6 1.2s.2 1 .2 1.6v.8h-5.6c.1.9.3 1.6.8 2.1s1.1.8 1.9.8c.4 0 .8-.1 1.1-.2.3-.1.7-.3 1-.5l.5.9-1.2.6c-.3.3-.8.4-1.4.4zm-2.6-5h4.4c0-.8-.2-1.5-.5-1.9-.4-.4-.9-.7-1.5-.7-.3 0-.6.1-.8.2-.3.1-.5.3-.7.5-.2.2-.4.5-.5.8s-.3.7-.4 1.1zM668.2 132.8c-.4 0-.8-.1-1.1-.2s-.5-.3-.7-.6c-.2-.2-.3-.5-.4-.9-.1-.3-.1-.7-.1-1.1v-4.6h-1.2v-1.1l1.3-.1.2-2.3h1.2v2.3h2.2v1.1h-2.2v4.6c0 .5.1.9.3 1.2.2.3.5.4 1 .4.1 0 .3 0 .5-.1s.3-.1.5-.2l.3 1.1c-.2.1-.5.1-.7.2s-.9.3-1.1.3zM673.6 132.8c-.4 0-.8-.1-1.1-.2s-.5-.3-.7-.6c-.2-.2-.3-.5-.4-.9-.1-.3-.1-.7-.1-1.1v-4.6H670v-1.1l1.3-.1.2-2.3h1.2v2.3h2.2v1.1h-2.2v4.6c0 .5.1.9.3 1.2.2.3.5.4 1 .4.1 0 .3 0 .5-.1s.3-.1.5-.2l.3 1.1c-.2.1-.5.1-.7.2s-.8.3-1 .3zM680.2 132.6v-11.2h3.5c.6 0 1.1.1 1.6.2s.9.3 1.2.5c.3.2.6.6.8 1 .2.4.3.9.3 1.5 0 .9-.2 1.6-.7 2.1-.5.5-1.1.9-1.8 1.1l2.8 4.9h-1.6l-2.7-4.7h-2v4.7h-1.4zm1.5-5.9h1.9c.9 0 1.5-.2 2-.5s.7-.9.7-1.6c0-.7-.2-1.3-.7-1.5-.5-.3-1.1-.4-2-.4h-1.9v4zM693 132.8a3.8 3.8 0 0 1-2.9-1.2c-.4-.4-.6-.8-.8-1.4s-.3-1.1-.3-1.8a4.84 4.84 0 0 1 1.1-3.2c.3-.4.7-.7 1.2-.9.4-.2.9-.3 1.4-.3.5 0 1 .1 1.4.3.4.2.8.4 1 .8.3.3.5.7.6 1.2.1.5.2 1 .2 1.6v.8h-5.6c.1.9.3 1.6.8 2.1s1.1.8 1.9.8c.4 0 .8-.1 1.1-.2.3-.1.7-.3 1-.5l.5.9-1.2.6c-.4.3-.9.4-1.4.4zm-2.6-5h4.4c0-.8-.2-1.5-.5-1.9-.4-.4-.9-.7-1.5-.7-.3 0-.6.1-.8.2-.3.1-.5.3-.7.5s-.4.5-.5.8c-.3.3-.4.7-.4 1.1zM701.3 132.8c-.5 0-1.1-.1-1.5-.3s-.9-.5-1.2-.8-.6-.8-.8-1.4c-.2-.5-.3-1.1-.3-1.8s.1-1.3.3-1.8c.2-.5.5-1 .9-1.4.4-.4.8-.7 1.3-.8.5-.2 1-.3 1.5-.3s1 .1 1.4.3c.4.2.7.4 1 .7l-.7.9c-.2-.2-.5-.4-.8-.5-.3-.1-.6-.2-.9-.2-.4 0-.7.1-1 .2-.3.2-.6.4-.8.7s-.4.6-.5 1c-.1.4-.2.8-.2 1.3s.1.9.2 1.3.3.7.5 1c.2.3.5.5.8.6.3.2.7.2 1 .2.4 0 .7-.1 1.1-.2l.9-.6.6.9c-.4.3-.8.6-1.2.8s-1.1.2-1.6.2zM705.8 132.6v-12.1h1.4v3.3l-.1 1.7c.4-.4.8-.7 1.2-1 .4-.3.9-.4 1.5-.4.9 0 1.5.3 1.9.8s.6 1.3.6 2.4v5.2H711v-5c0-.8-.1-1.3-.4-1.7-.2-.3-.6-.5-1.2-.5-.4 0-.8.1-1.1.3s-.7.5-1.1 1v6h-1.4zM717.6 132.8c-.4 0-.8-.1-1.1-.2-.3-.1-.5-.3-.7-.6s-.3-.5-.4-.9c-.1-.3-.1-.7-.1-1.1v-4.6h-1.2v-1.1l1.3-.1.2-2.3h1.2v2.3h2.2v1.1h-2.2v4.6c0 .5.1.9.3 1.2.2.3.5.4 1 .4.1 0 .3 0 .5-.1s.3-.1.5-.2l.3 1.1c-.2.1-.5.1-.7.2-.5.2-.8.3-1.1.3zM722.8 132.8c-.6 0-1.2-.1-1.7-.3-.5-.2-1-.5-1.4-.8l.7-.9c.4.3.7.5 1.1.7.4.2.8.3 1.3.3s1-.1 1.2-.4c.3-.2.4-.6.4-.9 0-.2-.1-.4-.2-.6s-.3-.3-.4-.4l-.6-.3c-.2-.1-.5-.2-.7-.3l-.9-.3c-.3-.1-.6-.3-.8-.5s-.4-.4-.6-.7a2 2 0 0 1-.2-.9c0-.3.1-.6.2-.9.1-.3.3-.5.6-.7.2-.2.5-.4.9-.5.4-.1.7-.2 1.2-.2s1 .1 1.4.3c.4.2.8.4 1.1.7l-.7.9c-.3-.2-.6-.4-.9-.5-.3-.1-.6-.2-1-.2-.5 0-.9.1-1.1.4-.2.2-.4.5-.4.8 0 .2.1.4.2.5.1.1.2.3.4.4l.6.3c.2.1.5.2.7.3.3.1.6.2.9.4.3.1.6.3.8.5s.4.4.6.7.2.6.2 1c0 .3-.1.7-.2 1-.1.3-.3.6-.6.8-.3.2-.6.4-1 .5-.2-.3-.6-.2-1.1-.2z"/></g><g fill="#020203"><path d="M350.3 56.8c-1.3 0-2.5-.2-3.6-.7a8.64 8.64 0 0 1-4.8-5.5c-.5-1.4-.7-2.9-.7-4.6 0-1.7.2-3.2.7-4.5.5-1.3 1.1-2.5 2-3.4.8-.9 1.8-1.7 2.9-2.2 1.1-.5 2.4-.8 3.7-.8 1.3 0 2.4.3 3.4.8s1.8 1.1 2.4 1.8l-1.4 1.7c-.6-.6-1.2-1.1-1.9-1.4-.7-.4-1.5-.5-2.4-.5a5.95 5.95 0 0 0-4.8 2.3c-.6.7-1 1.6-1.3 2.7-.3 1-.5 2.2-.5 3.5 0 1.3.2 2.5.5 3.6a6.8 6.8 0 0 0 3.3 4.4c.8.4 1.7.6 2.7.6 1 0 1.9-.2 2.7-.6s1.5-1 2.2-1.7l1.5 1.7c-.8 1-1.8 1.7-2.8 2.2-1.2.4-2.4.6-3.8.6zM360.4 56.5V40.9h2.6v13.4h7V40.9h2.6v13.4h2.3V56l-.3 6h-2.3v-5.5h-11.9zM384.4 56.8a7.76 7.76 0 0 1-5.3-2.2c-.7-.7-1.2-1.5-1.6-2.5-.4-1-.6-2.1-.6-3.4 0-1.3.2-2.4.6-3.4a7.6 7.6 0 0 1 3.8-4.2c.8-.4 1.7-.6 2.6-.6 1 0 1.9.2 2.6.5.8.3 1.4.8 2 1.5.5.6.9 1.4 1.2 2.3.3.9.4 1.9.4 3v.8c0 .3 0 .5-.1.7h-10.5c.1 1.7.6 3 1.6 4 .9 1 2.1 1.5 3.6 1.5.7 0 1.4-.1 2.1-.3.6-.2 1.2-.5 1.8-.9l.9 1.7c-.7.4-1.4.8-2.3 1.1-.8.3-1.7.4-2.8.4zm-4.9-9.4h8.3c0-1.6-.3-2.8-1-3.6-.7-.8-1.6-1.2-2.8-1.2a4.2 4.2 0 0 0-4 2.7c-.2.7-.4 1.4-.5 2.1zM394 56.5V40.9h2.6v6.3h7.5v-6.3h2.6v15.6h-2.6v-6.9h-7.5v6.9H394zM415.6 56.8c-1.3 0-2.4-.4-3.2-1.2s-1.3-1.9-1.3-3.3c0-1.7.8-3 2.3-3.9 1.5-.9 3.9-1.5 7.3-1.9 0-.5 0-1-.1-1.4-.1-.5-.3-.9-.5-1.2-.2-.4-.6-.7-1-.9-.4-.2-.9-.3-1.6-.3-.9 0-1.7.2-2.5.5s-1.5.7-2.1 1.2l-1-1.8c.7-.5 1.6-.9 2.7-1.4 1-.4 2.2-.7 3.5-.7 1.9 0 3.3.6 4.1 1.7.9 1.2 1.3 2.7 1.3 4.7v9.5H421l-.2-1.9h-.1c-.7.6-1.5 1.1-2.4 1.6s-1.8.7-2.7.7zm.7-2.1c.7 0 1.5-.2 2.1-.5s1.4-.9 2.1-1.6v-4.3c-1.3.2-2.4.4-3.3.6-.9.2-1.6.5-2.1.8s-.9.7-1.2 1.1-.4.9-.4 1.4c0 .9.3 1.5.8 1.9.6.4 1.3.6 2 .6zM432.2 61.6l8.5-27.8h1.9l-8.5 27.8h-1.9zM452.4 56.5v-21h6.2c1.1 0 2 .1 2.9.3.9.2 1.6.5 2.3.9.6.4 1.1.9 1.5 1.6.4.7.5 1.4.5 2.4s-.3 2-.8 2.8c-.5.8-1.3 1.4-2.3 1.7v.1c1.3.2 2.3.8 3.1 1.6s1.2 2 1.2 3.4c0 1-.2 1.9-.6 2.7s-.9 1.4-1.6 1.9c-.7.5-1.5.9-2.5 1.2-1 .3-2.1.4-3.2.4h-6.7zm2.6-12.1h3.1c1.8 0 3.1-.3 3.9-.9.8-.6 1.2-1.5 1.2-2.5 0-1.2-.4-2.1-1.2-2.6-.8-.5-2.1-.8-3.7-.8H455v6.8zm0 9.9h3.6c1.8 0 3.2-.3 4.2-1s1.5-1.7 1.5-3.1c0-1.3-.5-2.3-1.5-2.9-1-.6-2.4-.9-4.3-.9H455v7.9zM475.5 56.8c-1.7 0-2.9-.5-3.6-1.5-.8-1-1.1-2.5-1.1-4.5v-9.9h2.7v9.5c0 1.5.2 2.5.7 3.2.5.7 1.2 1 2.2 1 .8 0 1.5-.2 2.1-.6.6-.4 1.3-1.1 2-2V41h2.6v15.6h-2.2l-.2-2.4h-.1c-.7.9-1.5 1.5-2.3 2-.8.4-1.7.6-2.8.6zm-1.6-19.1c-.5 0-.9-.2-1.2-.5-.3-.3-.4-.7-.4-1.1 0-.4.1-.8.4-1.1.3-.3.7-.5 1.2-.5.4 0 .8.2 1.1.5.3.3.4.7.4 1.1 0 .4-.1.8-.4 1.1-.2.3-.6.5-1.1.5zm6.2 0c-.4 0-.8-.2-1.1-.5-.3-.3-.4-.7-.4-1.1 0-.4.1-.8.4-1.1.3-.3.7-.5 1.1-.5.5 0 .9.2 1.2.5.3.3.4.7.4 1.1 0 .4-.1.8-.4 1.1-.4.3-.8.5-1.2.5zM488.3 56.5V33.7h2.6v6.2l-.1 3.2c.7-.7 1.5-1.3 2.3-1.8.8-.5 1.8-.8 2.8-.8 1.6 0 2.8.5 3.6 1.5.8 1 1.1 2.5 1.1 4.5v9.9H498v-9.5c0-1.5-.2-2.5-.7-3.2-.5-.7-1.2-1-2.2-1-.8 0-1.5.2-2.1.6-.6.4-1.3 1-2.1 1.8v11.3h-2.6zM505.7 56.5V40.9h2.2l.2 2.2h.1c.7-.7 1.5-1.4 2.4-1.9.8-.5 1.8-.8 2.9-.8 1.6 0 2.8.5 3.6 1.5.8 1 1.1 2.5 1.1 4.5v9.9h-2.6v-9.5c0-1.5-.2-2.5-.7-3.2-.5-.7-1.2-1-2.2-1-.8 0-1.5.2-2.1.6-.6.4-1.3 1-2.1 1.8v11.3h-2.8zM529.6 56.8a7.76 7.76 0 0 1-5.3-2.2c-.7-.7-1.2-1.5-1.6-2.5-.4-1-.6-2.1-.6-3.4 0-1.3.2-2.4.6-3.4a7.6 7.6 0 0 1 3.8-4.2c.8-.4 1.7-.6 2.6-.6 1 0 1.9.2 2.6.5.8.3 1.4.8 2 1.5.5.6.9 1.4 1.2 2.3.3.9.4 1.9.4 3v.8c0 .3 0 .5-.1.7h-10.5c.1 1.7.6 3 1.6 4 .9 1 2.1 1.5 3.6 1.5.7 0 1.4-.1 2.1-.3.6-.2 1.2-.5 1.8-.9l.9 1.7c-.7.4-1.4.8-2.3 1.1-.8.3-1.8.4-2.8.4zm-4.9-9.4h8.3c0-1.6-.3-2.8-1-3.6-.7-.8-1.6-1.2-2.8-1.2a4.2 4.2 0 0 0-4 2.7c-.3.6-.5 1.4-.5 2.1z"/></g></g></svg>